<svg xmlns="http://www.w3.org/2000/svg" viewBox="0 0 228.89 92.37"><defs><style>.cls-1{fill:#fff;}</style></defs><g id="Layer_2" data-name="Layer 2"><g id="Layer_1-2" data-name="Layer 1"><path class="cls-1" d="M0,59.62H7.08V85.38H23.14v6.44H0Z"/><path class="cls-1" d="M26.07,79.63v-.09c0-7,5-12.84,12.19-12.84,8.24,0,12,6.4,12,13.39,0,.55,0,1.2-.09,1.84H33a5.72,5.72,0,0,0,6,4.83,8.12,8.12,0,0,0,6-2.53l4,3.54A12.31,12.31,0,0,1,39,92.37C31.55,92.37,26.07,87.18,26.07,79.63Zm17.39-2.07c-.41-3.13-2.25-5.24-5.2-5.24s-4.78,2.07-5.33,5.24Z"/><path class="cls-1" d="M53.44,84.74v-.1c0-5.38,4.1-7.86,9.94-7.86a17.53,17.53,0,0,1,6,1v-.41c0-2.9-1.8-4.51-5.3-4.51a18.07,18.07,0,0,0-6.8,1.33l-1.75-5.33a21.68,21.68,0,0,1,9.57-2c3.82,0,6.58,1,8.32,2.76s2.67,4.55,2.67,7.86V91.82H69.36V89.15a9.47,9.47,0,0,1-7.45,3.13C57.26,92.28,53.44,89.61,53.44,84.74ZM69.5,83.13V81.88A10.89,10.89,0,0,0,65,81c-3,0-4.84,1.2-4.84,3.41v.09c0,1.89,1.57,3,3.82,3C67.29,87.45,69.5,85.66,69.5,83.13Z"/><path class="cls-1" d="M82.06,67.16h7v3.5c1.61-2.07,3.68-4,7.22-4,5.29,0,8.38,3.5,8.38,9.16v16h-7V78.07c0-3.32-1.56-5-4.23-5s-4.37,1.7-4.37,5V91.82h-7Z"/><path class="cls-1" d="M108.9,87.13l4.19-5C116,84.51,119,86,122.7,86c2.9,0,4.65-1.15,4.65-3V82.9c0-1.8-1.1-2.72-6.49-4.1-6.48-1.65-10.67-3.45-10.67-9.84v-.09c0-5.85,4.69-9.71,11.27-9.71a18.64,18.64,0,0,1,12,4.09l-3.68,5.34c-2.85-2-5.66-3.18-8.37-3.18s-4.14,1.25-4.14,2.81v.09c0,2.12,1.38,2.81,7,4.24,6.53,1.7,10.21,4,10.21,9.66v.09c0,6.39-4.88,10-11.82,10A20.51,20.51,0,0,1,108.9,87.13Z"/><path class="cls-1" d="M138.15,79.63v-.09A12.66,12.66,0,0,1,151.08,66.7c4.64,0,7.54,1.57,9.84,4.14l-4.28,4.6A7.2,7.2,0,0,0,151,72.73c-3.49,0-6,3.08-6,6.72v.09c0,3.77,2.44,6.81,6.26,6.81,2.34,0,3.95-1,5.66-2.62l4.09,4.14A12.41,12.41,0,0,1,151,92.37,12.59,12.59,0,0,1,138.15,79.63Z"/><path class="cls-1" d="M163.86,84.74v-.1c0-5.38,4.09-7.86,9.94-7.86a17.47,17.47,0,0,1,6,1v-.41c0-2.9-1.79-4.51-5.29-4.51a18.12,18.12,0,0,0-6.81,1.33L166,68.87a21.74,21.74,0,0,1,9.57-2c3.82,0,6.58,1,8.33,2.76s2.67,4.55,2.67,7.86V91.82h-6.76V89.15a9.49,9.49,0,0,1-7.46,3.13C167.68,92.28,163.86,89.61,163.86,84.74Zm16-1.61V81.88a10.85,10.85,0,0,0-4.46-.92c-3,0-4.83,1.2-4.83,3.41v.09c0,1.89,1.57,3,3.82,3C177.71,87.45,179.91,85.66,179.91,83.13Z"/><path class="cls-1" d="M192.67,58.24h7V91.82h-7Z"/><path class="cls-1" d="M204.69,79.63v-.09c0-7,5-12.84,12.19-12.84,8.23,0,12,6.4,12,13.39,0,.55,0,1.2-.1,1.84H211.63a5.72,5.72,0,0,0,6,4.83,8.09,8.09,0,0,0,6-2.53l4,3.54a12.3,12.3,0,0,1-10.07,4.6C210.16,92.37,204.69,87.18,204.69,79.63Zm17.39-2.07c-.42-3.13-2.26-5.24-5.2-5.24s-4.79,2.07-5.34,5.24Z"/><path class="cls-1" d="M100.9,49.11a24.56,24.56,0,1,1,24.56-24.56A24.58,24.58,0,0,1,100.9,49.11Zm0-46.86a22.31,22.31,0,1,0,22.31,22.3A22.33,22.33,0,0,0,100.9,2.25Z"/><path class="cls-1" d="M128,49.11a24.56,24.56,0,1,1,24.56-24.56A24.58,24.58,0,0,1,128,49.11Zm0-46.86a22.31,22.31,0,1,0,22.31,22.3A22.33,22.33,0,0,0,128,2.25Z"/><path class="cls-1" d="M115.09,6l-.65-.46-.65.46c-6.49,4.61-9.11,10.6-9.11,18.54s2.62,13.92,9.11,18.53l.65.46.65-.46c6.49-4.61,9.12-10.6,9.12-18.53S121.58,10.63,115.09,6Zm-6.22,7.05,9-2.94c.51.61,1,1.24,1.45,1.9l-11.93,3.88A22.3,22.3,0,0,1,108.87,13.07Zm-2.74,7,15-4.88c.31.68.59,1.38.84,2.09l-16.21,5.28Q105.89,21.29,106.13,20.06Zm-.37,6.29,17.12-5.57a21.5,21.5,0,0,1,.27,2.28l-17.09,5.56A21,21,0,0,1,105.76,26.35Zm14,10.07-8.59,2.79c-.52-.6-1-1.23-1.48-1.88l11.59-3.77A23,23,0,0,1,119.78,36.42Zm2.9-7L107.87,34.2c-.32-.68-.61-1.37-.87-2.09l16.09-5.23A22.86,22.86,0,0,1,122.68,29.38Z"/></g></g></svg>